<svg width="38" height="37" viewBox="0 0 38 37" fill="none" xmlns="http://www.w3.org/2000/svg">
<g filter="url(#filter0_d_211_2354)">
<path d="M9.09076 5.71722H28.9286C30.0823 5.71722 31.189 6.17594 32.0048 6.99164C32.8206 7.80745 33.2792 8.91408 33.2792 10.0678V23.6411C33.2792 24.7949 32.8207 25.9014 32.0048 26.7172C31.189 27.5331 30.0825 27.9916 28.9286 27.9916H9.09076C7.93703 27.9916 6.8304 27.533 6.01459 26.7172C5.1989 25.9014 4.74017 24.7947 4.74017 23.6411V10.0678C4.74023 8.91408 5.19878 7.80745 6.01459 6.99164C6.8304 6.17583 7.93703 5.71728 9.09076 5.71722ZM6.13275 23.6411C6.13275 24.4255 6.44435 25.1781 6.99896 25.7328C7.5537 26.2876 8.30625 26.6 9.09076 26.6H28.9286C29.7132 26.6 30.4657 26.2876 31.0204 25.7328C31.5752 25.1781 31.8876 24.4256 31.8876 23.6411V13.3745H6.13275V23.6411ZM24.2304 20.3354H27.3632C27.5477 20.3355 27.725 20.4081 27.8554 20.5385C27.9858 20.6689 28.0584 20.8462 28.0585 21.0307C28.0585 21.2151 27.9857 21.3924 27.8554 21.5229C27.725 21.6533 27.5477 21.7269 27.3632 21.727H24.2304C24.0458 21.727 23.8687 21.6534 23.7382 21.5229C23.6078 21.3924 23.5341 21.2152 23.5341 21.0307C23.5342 20.8462 23.6078 20.6689 23.7382 20.5385C23.8687 20.4081 24.0459 20.3354 24.2304 20.3354ZM9.09076 7.1098C8.30625 7.10986 7.5537 7.42128 6.99896 7.97601C6.44423 8.53075 6.13281 9.2833 6.13275 10.0678V11.9819H31.8876V10.0678C31.8876 9.2833 31.5752 8.53075 31.0204 7.97601C30.4657 7.42139 29.7131 7.1098 28.9286 7.1098H9.09076Z" fill="#4CAF4F" stroke="#4CAF4F" stroke-width="0.696069"/>
</g>
<defs>
<filter id="filter0_d_211_2354" x="-1.69568" y="0.149048" width="41.4113" height="41.4113" filterUnits="userSpaceOnUse" color-interpolation-filters="sRGB">
<feFlood flood-opacity="0" result="BackgroundImageFix"/>
<feColorMatrix in="SourceAlpha" type="matrix" values="0 0 0 0 0 0 0 0 0 0 0 0 0 0 0 0 0 0 127 0" result="hardAlpha"/>
<feOffset dy="4"/>
<feGaussianBlur stdDeviation="2"/>
<feComposite in2="hardAlpha" operator="out"/>
<feColorMatrix type="matrix" values="0 0 0 0 0 0 0 0 0 0 0 0 0 0 0 0 0 0 0.25 0"/>
<feBlend mode="normal" in2="BackgroundImageFix" result="effect1_dropShadow_211_2354"/>
<feBlend mode="normal" in="SourceGraphic" in2="effect1_dropShadow_211_2354" result="shape"/>
</filter>
</defs>
</svg>
